<svg width="24" height="24" viewBox="0 0 24 24" fill="none" xmlns="http://www.w3.org/2000/svg">
<path d="M8.62245 8.62245L4.39932 12.8444C3.95569 13.288 3.60377 13.8147 3.36367 14.3943C3.12358 14.9739 3 15.5951 3 16.2225C3 16.8499 3.12358 17.4712 3.36367 18.0508C3.60377 18.6304 3.95569 19.1571 4.39932 19.6007V19.6007C4.84294 20.0443 5.3696 20.3962 5.94922 20.6363C6.52884 20.8764 7.15009 21 7.77747 21C8.40485 21 9.02609 20.8764 9.60572 20.6363C10.1853 20.3962 10.712 20.0443 11.1556 19.6007L15.3775 15.3775M8.62245 8.62245L12.8444 4.39932C13.288 3.95569 13.8147 3.60377 14.3943 3.36367C14.9739 3.12358 15.5951 3 16.2225 3C16.8499 3 17.4712 3.12358 18.0508 3.36367C18.6304 3.60377 19.1571 3.95569 19.6007 4.39932V4.39932C20.0443 4.84294 20.3962 5.3696 20.6363 5.94922C20.8764 6.52884 21 7.15009 21 7.77747C21 8.40485 20.8764 9.02609 20.6363 9.60572C20.3962 10.1853 20.0443 10.712 19.6007 11.1556L15.3775 15.3775M8.62245 8.62245L15.3775 15.3775" stroke="white" stroke-opacity="0.33" stroke-width="1.5" stroke-linecap="round" stroke-linejoin="round"/>
</svg>
